Coordinates
version=1
nRows=7
nColumns=40
inDegrees=yes

Units are S.I. units (second, meters, Newtons, ...)
If the header above contains a line with 'inDegrees', this indicates whether rotational values are in degrees (yes) or radians (no).

endheader
time	pelvis_tilt	pelvis_list	pelvis_rotation	pelvis_tx	pelvis_ty	pelvis_tz	hip_flexion_r	hip_adduction_r	hip_rotation_r	knee_angle_r	knee_angle_r_beta	ankle_angle_r	subtalar_angle_r	mtp_angle_r	hip_flexion_l	hip_adduction_l	hip_rotation_l	knee_angle_l	knee_angle_l_beta	ankle_angle_l	subtalar_angle_l	mtp_angle_l	lumbar_extension	lumbar_bending	lumbar_rotation	arm_flex_r	arm_add_r	arm_rot_r	elbow_flex_r	pro_sup_r	wrist_flex_r	wrist_dev_r	arm_flex_l	arm_add_l	arm_rot_l	elbow_flex_l	pro_sup_l	wrist_flex_l	wrist_dev_l
      0.00000000	     10.25540095	      4.78314403	    -64.98005130	      0.08752590	      1.02212743	      0.04474288	     36.81334190	    -16.85898955	      1.49123464	     51.60943911	      0.90075464	      0.20599799	      0.00000000	      0.00000000	     -3.13535023	     11.56434832	     -9.86246322	     18.87623670	      0.32945248	     17.14788963	      0.00000000	      0.00000000	    -15.63304590	     -3.05865404	      1.40287888	      3.87226708	    -17.92953418	     41.39148201	    107.93723932	     47.23315160	      0.00000000	      0.00000000	      7.35682726	    -19.45488793	     48.06224819	     95.89982261	     24.19860183	      0.00000000	      0.00000000
      0.00277778	     10.22386478	      4.71329283	    -64.95413629	      0.08760444	      1.02190078	      0.04556207	     36.61102660	    -16.71917490	      1.59715738	     51.49970063	      0.89883934	      0.41676636	      0.00000000	      0.00000000	     -2.93961951	     11.43217648	     -9.75146238	     19.41984043	      0.33894016	     17.27567554	      0.00000000	      0.00000000	    -15.61759620	     -3.02022366	      1.23269993	      3.77181982	    -17.91058107	     41.20956175	    108.13518798	     47.28772744	      0.00000000	      0.00000000	      7.41670861	    -19.41669307	     48.02592830	     95.95421937	     24.71388097	      0.00000000	      0.00000000
      0.00555556	     10.14845597	      4.59061681	    -65.05863419	      0.08741007	      1.02164885	      0.04659181	     36.40299766	    -16.39547959	      1.84031415	     51.38432980	      0.89682574	      0.63006060	      0.00000000	      0.00000000	     -2.74684947	     11.20381736	     -9.92699944	     20.01504799	      0.34932849	     17.44271010	      0.00000000	      0.00000000	    -15.61948332	     -2.95276073	      1.20350613	      3.68901063	    -17.90927200	     41.06059943	    108.31024266	     47.53564395	      0.00000000	      0.00000000	      7.47815686	    -19.33355383	     47.98412735	     96.03400346	     25.04525866	      0.00000000	      0.00000000
      0.00833333	     10.08182308	      4.52130163	    -65.14994456	      0.08729541	      1.02145664	      0.04734093	     36.28050565	    -16.16617357	      1.98711984	     51.29722646	      0.89530550	      0.67474700	      0.00000000	      0.00000000	     -2.62927419	     11.06690096	     -9.94246930	     20.34108616	      0.35501893	     17.53116601	      0.00000000	      0.00000000	    -15.59499044	     -2.90164726	      1.17694208	      3.66253879	    -17.89401784	     40.98568947	    108.37401379	     47.65828176	      0.00000000	      0.00000000	      7.45930368	    -19.29393428	     47.90110077	     96.11329697	     25.20218134	      0.00000000	      0.00000000
      0.01111111	      9.99413145	      4.48683805	    -65.28653664	      0.08701497	      1.02101363	      0.04841966	     36.17808590	    -15.84959855	      2.23460160	     51.19631093	      0.89354419	      0.87204418	      0.00000000	      0.00000000	     -2.33510680	     10.87018404	    -10.07655224	     20.93509399	      0.36538632	     17.67968869	      0.00000000	      0.00000000	    -15.50293371	     -2.87288030	      1.14887670	      3.58428896	    -17.86266251	     40.84227110	    108.51396339	     47.78911303	      0.00000000	      0.00000000	      7.47322963	    -19.24123112	     47.82831153	     96.18672975	     25.66457008	      0.00000000	      0.00000000
      0.01388889	      9.80230648	      4.27233226	    -65.32639628	      0.08684084	      1.02089069	      0.04950651	     35.81476586	    -15.42791483	      2.27579589	     50.99112090	      0.88996295	      1.06980634	      0.00000000	      0.00000000	     -2.18017104	     10.46585665	    -10.23996115	     21.55828906	      0.37626313	     17.86807509	      0.00000000	      0.00000000	    -15.54295601	     -2.64461237	      1.09650245	      3.49924335	    -17.88206251	     40.67061689	    108.71352875	     47.84081896	      0.00000000	      0.00000000	      7.53008986	    -19.15261306	     47.81734770	     96.44615580	     24.88495856	      0.00000000	      0.00000000
      0.01666667	      9.75328482	      4.22773390	    -65.41536164	      0.08666599	      1.02049350	      0.05053133	     35.66964704	    -15.19260693	      2.45487879	     50.89752964	      0.88832947	      1.38689966	      0.00000000	      0.00000000	     -1.91148574	     10.30144015	    -10.31225352	     22.17204194	      0.38697513	     18.00951968	      0.00000000	      0.00000000	    -15.48076981	     -2.63509709	      1.01447571	      3.40832575	    -17.85907946	     40.49011655	    108.89351658	     47.94742482	      0.00000000	      0.00000000	      7.58281573	    -19.11311335	     47.78678032	     96.48385531	     25.48597341	      0.00000000	      0.00000000
